<?xml version="1.0" encoding="UTF-8" standalone="no"?>
<!-- Created with Inkscape (http://www.inkscape.org/) -->

<svg
   xmlns:dc="http://purl.org/dc/elements/1.1/"
   xmlns:cc="http://creativecommons.org/ns#"
   xmlns:rdf="http://www.w3.org/1999/02/22-rdf-syntax-ns#"
   xmlns:svg="http://www.w3.org/2000/svg"
   xmlns="http://www.w3.org/2000/svg"
   xmlns:sodipodi="http://sodipodi.sourceforge.net/DTD/sodipodi-0.dtd"
   xmlns:inkscape="http://www.inkscape.org/namespaces/inkscape"
   id="svg2211"
   sodipodi:version="0.32"
   inkscape:version="0.92.3 (2405546, 2018-03-11)"
   width="256"
   height="256"
   version="1.0"
   sodipodi:docname="chi-rho-white.svg"
   inkscape:output_extension="org.inkscape.output.svg.inkscape"
   inkscape:export-filename="D:\Configuration\Games\Paradox Interactive\Stellaris\mod\chi_rho\raw\chi_rho-white-256x256.png"
   inkscape:export-xdpi="96"
   inkscape:export-ydpi="96">
  <metadata
     id="metadata2216">
    <rdf:RDF>
      <cc:Work
         rdf:about="">
        <dc:format>image/svg+xml</dc:format>
        <dc:type
           rdf:resource="http://purl.org/dc/dcmitype/StillImage" />
        <dc:title />
      </cc:Work>
    </rdf:RDF>
  </metadata>
  <defs
     id="defs2214">
    <filter
       style="color-interpolation-filters:sRGB;"
       inkscape:label="Drop Shadow"
       id="filter858">
      <feFlood
         flood-opacity="0.498039"
         flood-color="rgb(0,0,0)"
         result="flood"
         id="feFlood848" />
      <feComposite
         in="flood"
         in2="SourceGraphic"
         operator="in"
         result="composite1"
         id="feComposite850" />
      <feGaussianBlur
         in="composite1"
         stdDeviation="3"
         result="blur"
         id="feGaussianBlur852" />
      <feOffset
         dx="0"
         dy="0"
         result="offset"
         id="feOffset854" />
      <feComposite
         in="SourceGraphic"
         in2="offset"
         operator="over"
         result="composite2"
         id="feComposite856" />
    </filter>
  </defs>
  <sodipodi:namedview
     inkscape:window-height="1361"
     inkscape:window-width="2560"
     inkscape:pageshadow="2"
     inkscape:pageopacity="0.0"
     guidetolerance="10.0"
     gridtolerance="10.0"
     objecttolerance="10.0"
     borderopacity="1.0"
     bordercolor="#666666"
     pagecolor="#ffffff"
     id="base"
     inkscape:zoom="3.0293944"
     inkscape:cx="-32.52809"
     inkscape:cy="143.75359"
     inkscape:window-x="-9"
     inkscape:window-y="-9"
     inkscape:current-layer="svg2211"
     showgrid="false"
     inkscape:window-maximized="1" />
  <path
     inkscape:connector-curvature="0"
     id="path2222"
     d="m 120.62988,236.66525 c -0.48475,-0.48475 -0.88135,-18.13036 -0.88135,-39.21247 0,-29.85588 -0.34359,-38.32291 -1.55396,-38.29404 -0.85468,0.0203 -14.41769,11.20895 -30.140045,24.86342 -15.722345,13.6545 -29.236607,24.82635 -30.031691,24.82635 -2.007023,0 -13.052429,-12.48967 -12.503025,-14.13789 0.24601,-0.73802 6.307437,-5.55104 13.469838,-10.69559 17.302256,-12.42769 54.320943,-40.93266 55.376693,-42.64087 0.98645,-1.59611 -2.05677,-4.37595 -35.331654,-32.2738 C 63.787668,96.317165 53.860475,87.12935 53.860475,85.801097 c 0,-1.206187 2.194478,-4.642585 4.876619,-7.636427 4.703188,-5.249773 4.986784,-5.377048 7.974217,-3.578604 1.703679,1.025615 14.120462,12.074297 27.592859,24.552615 13.47238,12.478339 24.98851,22.687889 25.59138,22.687889 1.40825,0 1.34531,-35.417514 -0.12306,-69.256676 -0.9141,-21.066157 -1.55848,-26.99964 -3.20507,-29.512644 -1.8376,-2.804527 -1.85306,-3.225147 -0.14266,-3.881482 1.05504,-0.404859 11.88461,-0.550413 24.0657,-0.323458 20.92224,0.389819 22.45389,0.584584 27.68655,3.520577 14.1378,7.932629 18.70084,28.712252 9.00383,41.002736 -5.01817,6.360249 -17.34429,12.093418 -30.08255,13.992075 l -10.56695,1.575024 -0.33884,22.685108 c -0.18637,12.47679 0.13374,22.68508 0.71134,22.68508 0.5776,0 14.05888,-10.90882 29.9584,-24.24183 15.89954,-13.333018 29.38051,-24.241842 29.95771,-24.241842 1.17675,0 13.68005,13.707164 13.68005,14.997229 0,0.454303 -6.61071,5.270585 -14.69047,10.702833 -24.34167,16.36553 -54.92709,39.06108 -54.92709,40.75797 0,1.55982 39.75821,33.19083 58.67668,46.68223 5.26429,3.75414 9.59985,7.60455 9.63458,8.55644 0.0865,2.3711 -10.90332,15.05209 -13.04469,15.05209 -0.94987,0 -6.64075,-5.1002 -12.64636,-11.33379 -13.08809,-13.5848 -42.16347,-40.09664 -44.58758,-40.65626 -1.43839,-0.33208 -1.78075,5.98545 -2.05485,37.91671 l -0.32888,38.31517 -7.51006,0.36336 c -4.1305,0.19986 -7.90665,-0.0331 -8.3914,-0.51797 z M 154.45046,65.938382 c 10.61944,-5.417626 14.67902,-15.369408 10.30407,-25.259685 -3.43882,-7.774048 -8.88134,-11.266746 -18.51201,-11.879983 -7.50848,-0.478104 -7.84618,-0.372479 -9.06587,2.83557 -1.3571,3.569386 -1.76855,31.495751 -0.5123,34.769492 1.10349,2.875602 11.78508,2.596114 17.78611,-0.465394 z"
     style="fill:#ffffff;fill-opacity:1;stroke:none;stroke-width:1.24317086;stroke-opacity:0.15048547;filter:url(#filter858)" />
</svg>
